<svg width="20" height="19" viewBox="0 0 20 19" fill="none" xmlns="http://www.w3.org/2000/svg">
<path d="M19.2212 4.47687C19.1639 4.39545 19.0879 4.329 18.9995 4.2831C18.9111 4.23721 18.813 4.21322 18.7135 4.21316L6.06471 4.2831L5.38988 1.51063C4.99613 0.147188 4.06049 0 3.67674 0H0.999551C0.656406 0 0.378906 0.277812 0.378906 0.620625C0.378906 0.963437 0.656719 1.24123 0.999531 1.24123H3.67641C3.76109 1.24123 4.01953 1.24123 4.1958 1.85029L7.32063 13.8543C7.39563 14.1221 7.63969 14.3071 7.91811 14.3071H16.355C16.6169 14.3071 16.8506 14.1431 16.9391 13.8965L19.2972 5.04375C19.3656 4.85343 19.3372 4.64156 19.2212 4.47687ZM15.9182 13.0662H8.38918L6.41356 5.52467L17.8311 5.45472L15.9182 13.0662ZM14.6873 15.565C13.8242 15.565 13.1248 16.2644 13.1248 17.1275C13.1248 17.9906 13.8242 18.69 14.6873 18.69C15.5504 18.69 16.2498 17.9906 16.2498 17.1275C16.2498 16.2644 15.5504 15.565 14.6873 15.565ZM9.06231 15.565C8.19918 15.565 7.49981 16.2644 7.49981 17.1275C7.49981 17.9906 8.19918 18.69 9.06231 18.69C9.92543 18.69 10.6248 17.9906 10.6248 17.1275C10.6248 16.2644 9.92543 15.565 9.06231 15.565Z" fill="#333333"/>
</svg>
