<svg width="34" height="35" fill="none" xmlns="http://www.w3.org/2000/svg"><circle cx="17" cy="17.88" r="16.5" stroke="#333"/><path d="M20.92 14.02v-1.57a3.56 3.56 0 0 0-1.15-2.63A3.94 3.94 0 0 0 17 8.72a4.1 4.1 0 0 0-2.77 1.1 3.72 3.72 0 0 0-1.15 2.63v3.72c0 .14.06.28.16.38.1.1.25.16.4.16.15 0 .29-.06.4-.16.1-.1.16-.24.16-.38v-1.09h4.48v-1.06H14.2v-1.57c0-.7.3-1.38.82-1.88s1.24-.78 1.98-.78 1.46.28 1.98.78c.53.5.82 1.17.82 1.88v3.7c0 .14.06.27.17.37.1.1.24.16.4.16.14 0 .28-.06.39-.16.1-.1.16-.23.16-.37v-1.07h2.8v9.58H10.28v-9.58h1.69v-1.06h-2.8V24.7a1 1 0 0 0 .3.72c.2.19.48.3.76.3h13.56c.28 0 .55-.11.75-.3a1 1 0 0 0 .32-.72V14h-3.93Z" fill="#333"/></svg>