<svg width="20" height="21" fill="none" xmlns="http://www.w3.org/2000/svg"><path d="M19 10.5H6.98m-4.24 0H1m1.74 0c0-.6.22-1.16.62-1.58.4-.42.93-.65 1.5-.65.56 0 1.1.23 1.5.65.4.42.62.99.62 1.58 0 .6-.23 1.16-.62 1.58-.4.42-.94.65-1.5.65-.57 0-1.1-.23-1.5-.65a2.3 2.3 0 0 1-.62-1.58ZM19 17.27h-5.6m0 0c0 .59-.22 1.16-.61 1.58-.4.41-.94.65-1.5.65-.57 0-1.1-.24-1.5-.66a2.3 2.3 0 0 1-.63-1.57m4.25 0c0-.6-.23-1.16-.62-1.58-.4-.42-.94-.66-1.5-.66-.57 0-1.1.24-1.5.66-.4.42-.63.98-.63 1.58m0 0H1M19 3.73h-3.02m-4.24 0H1m10.74 0c0-.59.22-1.16.62-1.58a2.07 2.07 0 0 1 2.3-.48 2.12 2.12 0 0 1 1.16 1.2 2.33 2.33 0 0 1-.46 2.44 2.12 2.12 0 0 1-1.5.66c-.57 0-1.1-.24-1.5-.66a2.3 2.3 0 0 1-.62-1.58Z" stroke="#000" stroke-width="1.5" stroke-miterlimit="10" stroke-linecap="round"/></svg>