<svg width="90" height="42" fill="none" xmlns="http://www.w3.org/2000/svg"><path fill-rule="evenodd" clip-rule="evenodd" d="M19.64.29h5.15v19.36h-5.15v-7.4H5.14v7.4H0V.29h5.15V7.7h14.49V.3ZM41.97.29l9.8 19.36h-5.78L44 15.45H33.66l-1.98 4.2H25.9L35.72.29h6.25Zm-.16 10.57-2.95-6.32-3.01 6.32h5.96Z" fill="#333"/><path d="M59.4.37h-5.13v19.28h5.13V.37Z" fill="#333"/><path fill-rule="evenodd" clip-rule="evenodd" d="M87.8 7.24c0 1.07-.13 2-.42 2.75a5.57 5.57 0 0 1-2.64 3.23c-.58.31-1.22.58-1.88.76l5.92 5.38H81.7l-5.12-4.88h-6.84v4.88h-5.17V0H78.5c.58 0 1.21.03 1.9.08.68.05 1.37.16 2.08.31.69.16 1.35.4 1.98.71a5.99 5.99 0 0 1 2.88 3.28c.3.79.45 1.76.45 2.86ZM69.72 9.63h9.18a7.8 7.8 0 0 0 1.72-.16c.45-.1.8-.26 1.06-.47.26-.21.42-.45.52-.74.1-.29.16-.63.16-1.02 0-.37-.05-.7-.16-1-.1-.29-.29-.55-.52-.73-.27-.21-.61-.37-1.06-.47-.45-.1-1-.16-1.72-.16h-9.18v4.75ZM8.82 27.33c-.69 0-1.27.13-1.7.4-.44.26-.78.62-1.05 1.07-.26.45-.42.94-.53 1.52a9.96 9.96 0 0 0 0 3.57c.1.58.27 1.1.53 1.55.27.44.6.8 1.06 1.07.45.26 1 .4 1.69.4H16a3.2 3.2 0 0 0 2.08-.66c.53-.42.87-.97 1-1.6H9.78v-3.57h14.78v10.65h-3.7l-.63-1.42c-.53.32-1.06.56-1.64.74-.55.18-1.1.31-1.66.42-.55.1-1.08.16-1.58.2-.5.03-.98.06-1.43.06h-3.67c-.58 0-1.24-.03-1.98-.1a10.35 10.35 0 0 1-4.46-1.39c-.71-.42-1.37-1-1.93-1.7-.55-.72-1-1.6-1.34-2.66-.35-1.05-.53-2.3-.53-3.8 0-1.47.18-2.73.53-3.8.34-1.05.79-1.95 1.34-2.65a6.93 6.93 0 0 1 1.93-1.7 9.92 9.92 0 0 1 4.46-1.39c.74-.06 1.4-.11 1.98-.11h4.23c.52 0 1.1.02 1.76.07a11.08 11.08 0 0 1 4.04 1.08c.69.32 1.3.76 1.88 1.31a7.86 7.86 0 0 1 1.48 2.02c.42.81.7 1.76.9 2.89H19a3.05 3.05 0 0 0-.98-1.84 3.12 3.12 0 0 0-2.14-.68H8.82v.05Zm80.4 4.77c0 1.47-.18 2.73-.52 3.8a8.12 8.12 0 0 1-1.38 2.66 7.32 7.32 0 0 1-1.92 1.7 10.35 10.35 0 0 1-4.46 1.4c-.74.04-1.4.1-1.98.1H63.94l-1.98-4.2h-10.3l-1.98 4.2H42.1l-5.12-4.86h-6.8v4.86H25V22.48h13.88c.58 0 1.22.02 1.9.08.7.05 1.38.15 2.06.31.69.16 1.35.4 1.98.71.64.32 1.2.73 1.7 1.29.5.55.86 1.2 1.18 1.99.3.79.45 1.73.45 2.86 0 1.05-.13 1.97-.4 2.73a5.57 5.57 0 0 1-2.64 3.23c-.58.3-1.21.57-1.87.75l2.32 2.1L53.7 22.5h6.26l4.54 9v-9h14.5c.57 0 1.23.03 1.97.11A10.35 10.35 0 0 1 85.42 24c.72.42 1.35 1 1.93 1.7.58.71 1.03 1.6 1.37 2.65.32 1 .5 2.29.5 3.75Zm-8.84 4.8c.69 0 1.24-.13 1.7-.39.41-.26.78-.63 1.02-1.07.26-.45.42-.97.53-1.55a9.96 9.96 0 0 0 0-3.57 4.52 4.52 0 0 0-.53-1.52c-.26-.45-.6-.79-1.03-1.08-.42-.26-1-.39-1.69-.39H69.64v9.57h10.74ZM59.8 33l-2.96-6.3-2.98 6.3h5.94Zm-29.62-.95h9.16c.69 0 1.27-.05 1.7-.15.44-.11.78-.27 1.05-.48.26-.2.42-.44.53-.73.1-.29.15-.63.15-1.02 0-.37-.05-.71-.15-1a1.6 1.6 0 0 0-.53-.74 2.3 2.3 0 0 0-1.06-.44c-.45-.1-1-.16-1.69-.16h-9.16v4.72Z" fill="#333"/></svg>