<svg width="48" height="48" fill="none" xmlns="http://www.w3.org/2000/svg"><path d="M24 0a24 24 0 1 0 .02 48.02A24 24 0 0 0 24 0Zm11.14 16.32c-.36 3.8-1.92 13-2.72 17.26-.33 1.8-1 2.4-1.63 2.47-1.39.12-2.45-.91-3.79-1.8-2.11-1.4-3.31-2.26-5.35-3.6-2.38-1.56-.84-2.43.53-3.82.36-.36 6.5-5.95 6.62-6.45a.48.48 0 0 0-.12-.44c-.14-.12-.34-.07-.5-.04-.22.04-3.58 2.28-10.13 6.7-.96.64-1.83.98-2.6.95-.86-.02-2.49-.48-3.71-.89-1.52-.48-2.7-.74-2.6-1.58.05-.43.65-.86 1.78-1.32 7-3.05 11.66-5.06 14-6.02 6.66-2.79 8.03-3.27 8.94-3.27.2 0 .65.05.94.29.24.2.31.46.34.65-.03.14.02.57 0 .91Z" fill="#023047"/></svg>