<svg width="48" height="48" fill="none" xmlns="http://www.w3.org/2000/svg"><path d="M24 0a24 24 0 1 0 0 48 24 24 0 0 0 0-48Zm9.23 27.08s2.12 2.1 2.65 3.07l.02.05c.22.35.27.63.16.84-.18.34-.78.51-.98.53h-3.75c-.26 0-.8-.07-1.46-.52-.51-.36-1.01-.94-1.5-1.51-.73-.84-1.36-1.57-2-1.57a.76.76 0 0 0-.23.03c-.48.16-1.1.84-1.1 2.67 0 .57-.45.9-.76.9h-1.72c-.58 0-3.63-.21-6.33-3.06-3.3-3.49-6.28-10.48-6.3-10.55-.2-.45.2-.69.62-.69h3.78c.5 0 .67.3.79.58.13.32.63 1.58 1.44 3 1.32 2.31 2.13 3.25 2.77 3.25.12 0 .24-.03.35-.09.84-.46.69-3.48.65-4.1 0-.12 0-1.35-.43-1.94a1.85 1.85 0 0 0-1.16-.65c.13-.18.3-.32.5-.42.58-.3 1.62-.33 2.66-.33h.58a6.4 6.4 0 0 1 1.82.18c.82.2.84.73.77 2.56-.02.52-.05 1.1-.05 1.79v.48c-.03.93-.06 1.98.6 2.41.08.06.18.08.28.09.23 0 .91 0 2.77-3.19a24.3 24.3 0 0 0 1.48-3.18c.04-.07.15-.27.28-.35.1-.04.2-.07.31-.07h4.46c.48 0 .81.07.88.26.1.3-.02 1.2-2.06 3.96l-.9 1.2c-1.85 2.41-1.85 2.54.11 4.37Z" fill="#023047"/></svg>